<?xml version="1.0" encoding="UTF-8"?>
<svg id="Layer_1" data-name="Layer 1" xmlns="http://www.w3.org/2000/svg" viewBox="0 0 1172.33 232.9">
  <defs>
    <style>
      .cls-1 {
        fill: blue;
      }
    </style>
  </defs>
  <path class="cls-1" d="M93.12,34.42h1.79l74.87,159.59h-29.5l-12.96-29.73H59.37l-12.52,29.73h-28.83L93.12,34.42ZM117.7,143.05l-15.87-37.55c-2.01-4.92-6.03-15.42-7.38-20.12h-1.12c-1.56,4.69-5.81,15.2-7.82,19.89l-17.43,37.77h49.62Z"/>
  <path class="cls-1" d="M248.45,39.79v131.42h60.79v22.8h-87.39V39.79h26.6Z"/>
  <path class="cls-1" d="M440.66,39.79v23.02h-44.92v131.2h-26.37V62.81h-45.82v-23.02h117.11Z"/>
  <path class="cls-1" d="M588.62,39.79v23.02h-67.94v40.01h55.2v22.57h-55.2v45.82h71.97v22.8h-98.56V39.79h94.54Z"/>
  <path class="cls-1" d="M649.86,39.79c11.85-.22,32.63-.89,45.59-.89,40.23,0,56.77,19.67,56.77,44.48s-12.29,38-27.27,44.03l46.93,66.61h-29.72l-42.46-61.24c-3.8.45-7.82.67-11.62.67-4.25,0-9.16-.22-12.52-.89v61.47h-25.7V39.79ZM675.56,111.09c3.58.45,11.85,1.12,19.22,1.12,19,0,31.51-7.38,31.51-26.82,0-14.75-7.82-25.03-29.95-25.03-6.03,0-16.99.67-20.79.89v49.84Z"/>
  <path class="cls-1" d="M950.25,39.79v158.69h-2.23l-92.53-95.89-8.05-9.61.67,11.62v89.4h-26.37V35.32h2.01l91.41,93.2,9.83,11.17-.89-13.86V39.79h26.15Z"/>
  <path class="cls-1" d="M1077.64,34.42h1.79l74.87,159.59h-29.5l-12.96-29.73h-67.94l-12.52,29.73h-28.83l75.09-159.59ZM1102.23,143.05l-15.87-37.55c-2.01-4.92-6.03-15.42-7.38-20.12h-1.12c-1.56,4.69-5.81,15.2-7.82,19.89l-17.43,37.77h49.62Z"/>
</svg>