<?xml version="1.0" encoding="UTF-8"?>
<svg id="Layer_1" data-name="Layer 1" xmlns="http://www.w3.org/2000/svg" xmlns:xlink="http://www.w3.org/1999/xlink" viewBox="0 0 1920 700">
  <defs>
    <style>
      .cls-1 {
        fill: url(#linear-gradient);
      }

      .cls-1, .cls-2, .cls-3, .cls-4 {
        stroke-width: 0px;
      }

      .cls-2 {
        fill: #372de2;
      }

      .cls-3 {
        fill: url(#linear-gradient-2);
      }

      .cls-4 {
        fill: #01fea9;
      }
    </style>
    <linearGradient id="linear-gradient" x1="516.52" y1="-1313.29" x2="786.81" y2="-1313.29" gradientTransform="translate(7.67 -1195.83) rotate(18.19) scale(1 -1)" gradientUnits="userSpaceOnUse">
      <stop offset="0" stop-color="#fff" stop-opacity="0"/>
      <stop offset=".1" stop-color="#d3d0f8" stop-opacity=".22"/>
      <stop offset=".22" stop-color="#a9a5f2" stop-opacity=".43"/>
      <stop offset=".34" stop-color="#8680ed" stop-opacity=".6"/>
      <stop offset=".46" stop-color="#6962e9" stop-opacity=".75"/>
      <stop offset=".58" stop-color="#534ae6" stop-opacity=".86"/>
      <stop offset=".71" stop-color="#433ae3" stop-opacity=".94"/>
      <stop offset=".84" stop-color="#3a30e2" stop-opacity=".98"/>
      <stop offset="1" stop-color="#372de2"/>
    </linearGradient>
    <linearGradient id="linear-gradient-2" x1="11063.64" y1="3055" x2="11333.93" y2="3055" gradientTransform="translate(11754.87 948.64) rotate(-161.81) scale(1 -1)" gradientUnits="userSpaceOnUse">
      <stop offset="0" stop-color="#fff" stop-opacity="0"/>
      <stop offset=".06" stop-color="#e3fef5" stop-opacity=".11"/>
      <stop offset=".21" stop-color="#a8fee1" stop-opacity=".34"/>
      <stop offset=".36" stop-color="#75fed0" stop-opacity=".54"/>
      <stop offset=".5" stop-color="#4bfec2" stop-opacity=".71"/>
      <stop offset=".64" stop-color="#2afeb7" stop-opacity=".83"/>
      <stop offset=".77" stop-color="#13feaf" stop-opacity=".93"/>
      <stop offset=".89" stop-color="#05feaa" stop-opacity=".98"/>
      <stop offset="1" stop-color="#01fea9"/>
    </linearGradient>
  </defs>
  <g>
    <g>
      <path class="cls-2" d="m477.18,350.65v-199.39h65.3v117.55c13.5-19.15,35.26-29.17,60.95-29.17,48.76,0,104.48,35.7,104.48,110.58,0,69.22-47.89,115.8-116.24,115.8s-114.5-43.1-114.5-115.37h.01Zm164.56,2.18c0-30.91-20.03-52.24-49.63-52.24s-49.63,21.33-49.63,52.24,20.03,52.24,49.63,52.24,49.63-21.33,49.63-52.24Z"/>
      <path class="cls-2" d="m752.76,183.91c0-23.94,17.85-41.79,41.79-41.79s41.79,17.85,41.79,41.79-17.85,41.79-41.79,41.79-41.79-17.85-41.79-41.79Zm9.14,61.38h65.3v215.06h-65.3v-215.06Z"/>
      <path class="cls-2" d="m884.15,405.94l107.97-104.05h-101.44v-56.6h187.2v54.42l-107.97,104.05h112.32v56.59h-198.08v-54.42h0Z"/>
    </g>
    <g>
      <path class="cls-4" d="m1136.13,354.57c0-70.09,47.89-114.93,114.5-114.93s116.24,47.02,116.24,114.5c0,71.4-53.11,111.88-109.27,111.88-34.83,0-64.43-15.67-80.1-43.53v129.73h-41.36v-197.65h-.01Zm188.94-1.74c0-43.54-29.6-74.88-74.01-74.88s-73.57,31.35-73.57,74.88,29.6,74.88,73.57,74.88,74.01-31.35,74.01-74.88Z"/>
      <path class="cls-4" d="m1407.65,352.83c0-65.3,47.89-113.19,115.8-113.19s114.93,47.89,114.93,113.19v15.24h-187.2c6.1,38.31,34.83,59.64,72.27,59.64,27.86,0,47.45-8.71,60.08-27.43h45.71c-16.54,40.05-55.72,65.74-105.79,65.74-67.91,0-115.8-47.89-115.8-113.19Zm187.2-21.77c-8.27-34.39-36.57-53.11-71.4-53.11s-62.69,19.16-70.96,53.11h142.36Z"/>
      <path class="cls-4" d="m1688.8,486.05h41.36c10.01,24.38,31.35,35.7,62.26,35.7,40.05,0,65.74-19.15,65.74-67.91v-30.91c-13.49,26.56-39.62,41.36-71.83,41.36-53.55,0-99.26-33.52-99.26-108.84v-110.15h41.36v110.15c0,46.58,25.69,70.09,64.87,70.09s64.87-24.38,64.87-70.09v-110.15h41.36v207.66c0,74.88-47.45,104.92-107.1,104.92-49.63,0-90.99-23.07-103.61-71.83h-.02Z"/>
    </g>
  </g>
  <g>
    <path class="cls-1" d="m116.12,345.67c-40.65-27.63-57.37-77.18-23.73-133.37,32.96-49.83,119.92-90.37,200.54-59.35,19.85,8.22,35.44,19.16,46.72,33.9,21.49,28.06,24.66,66.51,8.51,97.95-34.34,66.87-140.59,114.36-232.05,60.87h.01Z"/>
    <path class="cls-3" d="m262.73,264.65c40.65,27.63,57.37,77.18,23.73,133.37-32.96,49.83-119.92,90.37-200.54,59.35-19.85-8.22-35.44-19.16-46.72-33.9-21.49-28.06-24.66-66.51-8.51-97.95,34.34-66.87,140.59-114.36,232.05-60.87h-.01Z"/>
  </g>
</svg>